<?xml version="1.0" encoding="utf-8"?>
<!-- Generator: Adobe Illustrator 14.0.0, SVG Export Plug-In . SVG Version: 6.00 Build 43363)  -->
<!DOCTYPE svg PUBLIC "-//W3C//DTD SVG 1.1//EN" "http://www.w3.org/Graphics/SVG/1.1/DTD/svg11.dtd">
<svg version="1.1" id="Calque_1" xmlns="http://www.w3.org/2000/svg" xmlns:xlink="http://www.w3.org/1999/xlink" x="0px" y="0px"
	 width="120px" height="120px" viewBox="-15 -15 120 120" enable-background="new -15 -15 120 120" xml:space="preserve">
<g>
	<path fill="#CCE6E3" d="M16.85,38.665l-4.359,4.802c0,0-14.972-6.634-19.14-9.097c0,0,7.645-17.94,12.381-26.278l1.326-1.075
		l10.549-8.148l2.305-2.883l0.032-1.033l0.632-0.188c0,0,7.01,2.21,14.464-0.759c0,0,2.906-0.821,3.284-1.074
		c0.38-0.254,3.727-2.59,3.727-2.59l4.992-4.549l0.945,0.38l3.476,1.199l14.784,0.126c0,0,20.147,9.537,25.958,13.076l-0.567,1.642
		c0,0-5.686,12.065-8.906,17.497l-6.444-1.138l0.822,2.59l7.265,22.299l7.578,22.296c0,0,1.705,6.382,0.378,13.645
		c-1.323,7.263-3.662,12.886-3.662,12.886s-6.441,6.443-13.707,8.845c-7.262,2.398-16.171,3.598-21.474,2.144
		c0,0-6.572-2.271-12.193-7.704c-5.621-5.432-7.896-10.296-7.896-10.296s-4.169-12.443-6.632-19.961
		C24.304,57.806,16.85,38.665,16.85,38.665z"/>
	<path fill="#AECCC7" d="M20.104-5.122c0,0,7.363,1.437,12.765-0.036l1.511-0.529c0,0,1.169-0.302,1.284-0.339
		c0.113-0.038,1.285-0.34,1.397-0.377c0.113-0.038,0.831-0.417,0.831-0.417l4.306-2.944l4.985-4.495l0.264,0.642v1.474
		c0,0,0.416,4.458-1.512,7.364c-1.926,2.908-2.416,4.757-7.364,6.269c0,0-3.854,1.473-5.627,1.361
		c-1.775-0.113-5.211-0.04-7.932-2.154C22.293-1.42,20.291-4.216,20.104-5.122z"/>
	<path fill="#AECCC7" d="M33.4,85.28c0,0,7.089,2.582,19.456,1.596c0,0,2.153,5.026,0.634,16.404
		C53.489,103.28,40.105,98.411,33.4,85.28z"/>
	<path fill="#AECCC7" d="M77.688,77.865c0,0,2.26,6.931,10.982,14.427c0,0,2.315-4.673,3.403-12.113
		c1.083-7.439,0.111-12.525-0.118-14.417C91.955,65.762,85.522,74.957,77.688,77.865z"/>
	<path fill="#08354A" d="M68.068-11.156c1.186,21.724,7.727,29.707,8.002,30.036c0.194,0.229,0.535,0.26,0.762,0.064
		c0.229-0.191,0.257-0.531,0.064-0.76c-0.064-0.081-6.583-8.096-7.744-29.399c-0.02-0.3-0.272-0.529-0.575-0.512
		C68.284-11.711,68.053-11.454,68.068-11.156z"/>
	<path fill="#08354A" d="M46.912-13.452C47.697-0.92,37.864,1.253,37.446,1.337c-0.296,0.062-0.482,0.349-0.421,0.64
		c0.06,0.296,0.343,0.482,0.638,0.423c0.111-0.021,11.178-2.426,10.33-15.917c-0.016-0.298-0.272-0.528-0.571-0.508
		C47.123-14.005,46.894-13.748,46.912-13.452z"/>
	<path fill="#08354A" d="M4.647,9.908c-0.248,0.169-0.31,0.506-0.141,0.753c12.013,17.633,11.704,27.958,11.698,28.061
		c-0.015,0.301,0.217,0.555,0.517,0.566c0.296,0.014,0.553-0.215,0.564-0.515c0.019-0.431,0.363-10.744-11.887-28.722
		C5.229,9.803,4.896,9.74,4.647,9.908z"/>
	<path fill="#08354A" d="M20.058-4.766c-0.245,0.166-0.312,0.505-0.146,0.752c7.528,11.234,17.774,6.421,17.88,6.37
		c0.268-0.129,0.38-0.45,0.251-0.721c-0.132-0.271-0.455-0.382-0.724-0.253c-0.387,0.187-9.515,4.433-16.506-6
		C20.643-4.865,20.307-4.93,20.058-4.766z"/>
	<path fill="#08354A" d="M21.956-2.714c-0.133,0.267-0.022,0.591,0.246,0.725c4.959,2.454,12.641-0.458,12.966-0.58l1.608-0.546
		c0.314-0.091,8.18-2.444,10.633-7.407c0.134-0.267,0.022-0.591-0.247-0.724C46.896-11.38,46.569-11.27,46.44-11
		c-2.245,4.533-9.914,6.83-9.992,6.852l-1.652,0.559c-0.094,0.036-7.584,2.87-12.115,0.63C22.41-3.094,22.086-2.983,21.956-2.714z"
		/>
	<path fill="#08354A" d="M92.675,0.393c-2.114-1.865-25.144-13-26.121-13.472c-0.084-0.04-0.18-0.058-0.271-0.053
		c-5.251,0.344-14.778-0.037-14.875-0.042l-3.134-1.046l-0.817-0.674c-0.231-0.178-0.562-0.144-0.75,0.08
		c-0.056,0.068-5.909,6.982-11.428,8.153c-0.018,0.003-0.041,0.011-0.057,0.017l-0.979,0.333
		c-5.158,2.444-14.004,0.505-14.092,0.484c-0.286-0.064-0.567,0.109-0.643,0.39l-0.319,1.201l-1.872,2.674
		C17.345-1.61,10,4.482,5.621,7.396C5.543,7.449,5.479,7.521,5.44,7.603C4.947,8.571-6.591,31.404-7.128,34.17
		c-0.047,0.237,0.066,0.471,0.276,0.583c0.598,0.318,14.738,7.823,19.21,9.215c0.202,0.064,0.422,0.002,0.561-0.152
		c0,0,2.863-3.185,3.693-4.107c0.19-0.31,0.429-0.707,0.666-1.135c-0.041-0.066-0.072-0.109-0.076-0.113
		c-0.09-0.148-0.24-0.241-0.413-0.254c-0.167-0.012-0.333,0.053-0.446,0.178c0,0-3.543,3.941-3.981,4.43
		c-4.312-1.452-16.351-7.776-18.299-8.805C-5.079,31.13,2.333,16.148,6.342,8.213c4.443-2.975,11.691-8.99,11.769-9.05l2.046-2.95
		c0,0,0.137-0.475,0.254-0.878c1.992,0.388,9.454,1.624,14.238-0.645l0.907-0.304c5.15-1.124,10.292-6.587,11.643-8.112
		c0.277,0.218,0.576,0.449,0.576,0.449l3.446,1.158c0.238,0.031,9.651,0.407,14.984,0.073C74.213-8.175,89.199-0.772,91.634,0.992
		c-0.925,2.003-6.653,14.339-9.19,18.109c-0.646-0.124-5.854-1.104-5.854-1.104c-0.168-0.028-0.338,0.021-0.467,0.132
		c-0.127,0.114-0.192,0.282-0.177,0.45c0,0.014,0.016,0.16,0.042,0.425c0.331,0.097,0.297,0.032,0.69,0.157
		c-0.006-0.051,0.421,0.082,0.415,0.037c1.117,0.209,5.507,1.036,5.507,1.036c0.208,0.038,0.421-0.048,0.544-0.222
		c2.704-3.821,9.384-18.371,9.665-18.987C92.907,0.808,92.853,0.554,92.675,0.393z"/>
	<path fill="#08354A" d="M77.821,78.446l-0.418-1.142c8.421-3.084,13.018-10.566,13.814-11.959
		c-1.016-2.918-10.332-29.79-15.508-46.889l1.163-0.353c5.445,17.984,15.479,46.811,15.582,47.098l0.084,0.25l-0.121,0.232
		C92.22,66.059,87.534,74.891,77.821,78.446L77.821,78.446z"/>
	<path fill="#08354A" d="M53.112,87.437c-10.734,1.365-19.61-1.52-19.982-1.639l-0.292-0.099l-0.095-0.298
		C23.724,56.77,16.303,38.619,16.231,38.439l1.123-0.462c0.075,0.178,7.463,18.246,16.454,46.756
		c1.624,0.48,9.766,2.694,19.151,1.496L53.112,87.437L53.112,87.437z"/>
	<polygon fill="#08354A" points="65.588,-4.9 46.448,-5.335 46.46,-5.944 65.002,-5.523 65.136,-9.212 47.438,-9.722 
		47.456,-10.332 65.765,-9.804 	"/>
	
		<ellipse transform="matrix(-0.3198 -0.9475 0.9475 -0.3198 73.6241 37.6447)" fill="#08354A" cx="50.325" cy="-7.606" rx="1.057" ry="1.016"/>
	
		<ellipse transform="matrix(-0.3215 -0.9469 0.9469 -0.3215 81.5482 43.6453)" fill="#08354A" cx="56.411" cy="-7.394" rx="1.057" ry="1.015"/>
	
		<ellipse transform="matrix(-0.3212 -0.947 0.947 -0.3212 89.1605 49.3099)" fill="#08354A" cx="62.252" cy="-7.299" rx="1.06" ry="1.013"/>
	<path fill="#08354A" d="M73.552,102.229c-10.891,3.687-19.812,1.815-20.188,1.733l-0.549-0.118l0.191-1.367
		c0.305-2.502,0.814-9.175-1.05-16.941l-0.018-0.161c0.018-0.5,0.604-3.199,10.642-7.227c0.767-0.31,1.531-0.592,2.276-0.844
		c8.725-2.951,12.591-0.915,12.751-0.824l0.211,0.114l0.072,0.221c2.644,7.81,11.061,15.09,11.146,15.162l0.51,0.441l-0.492,0.465
		C84.509,97.142,79.291,100.29,73.552,102.229L73.552,102.229z M54.176,102.876c2.104,0.336,9.936,1.267,18.988-1.797
		c5.367-1.816,10.266-4.719,14.568-8.633c-1.898-1.719-8.438-8.012-10.904-14.988c-0.853-0.331-4.5-1.402-11.583,0.995
		c-0.72,0.244-1.467,0.521-2.216,0.822c-8.485,3.407-9.702,5.706-9.858,6.116c1.873,7.897,1.354,14.681,1.041,17.239L54.176,102.876
		L54.176,102.876z"/>
	
		<ellipse transform="matrix(-0.3209 -0.9471 0.9471 -0.3209 -4.9953 165.0531)" fill="#08354A" cx="56.674" cy="84.317" rx="1.059" ry="1.017"/>
	
		<ellipse transform="matrix(-0.3216 -0.9469 0.9469 -0.3216 9.7526 167.745)" fill="#08354A" cx="64.966" cy="80.379" rx="1.058" ry="1.016"/>
	
		<ellipse transform="matrix(-0.3218 -0.9468 0.9468 -0.3218 20.9491 173.4871)" fill="#08354A" cx="72.612" cy="79.24" rx="1.059" ry="1.016"/>
	<path fill="#08354A" d="M53.273,103.938c-0.138-0.057-14.292-5.648-20.5-18.454l1.095-0.528
		c5.999,12.378,19.707,17.793,19.846,17.85L53.273,103.938L53.273,103.938z"/>
	<path fill="#08354A" d="M89.196,92.678l-1.118-0.477c0.06-0.146,6.253-14.984,3.212-26.645l1.175-0.306
		C95.613,77.316,89.464,92.055,89.196,92.678L89.196,92.678z"/>
	<path fill="#08354A" d="M81.387,19.395l-0.538-0.286C86.801,7.797,90.246-0.379,90.28-0.462l0.562,0.236
		C90.807-0.145,87.354,8.057,81.387,19.395L81.387,19.395z"/>
	<path fill="#08354A" d="M13.234,42.453C6.341,39.166-6.054,32.68-6.179,32.616l0.281-0.542c0.127,0.067,12.511,6.547,19.396,9.831
		L13.234,42.453L13.234,42.453z"/>
</g>
</svg>
