<?xml version="1.0" encoding="UTF-8"?>
<svg width="73px" height="72px" viewBox="0 0 73 72" version="1.1" xmlns="http://www.w3.org/2000/svg" xmlns:xlink="http://www.w3.org/1999/xlink">
    <!-- Generator: Sketch 46.2 (44496) - http://www.bohemiancoding.com/sketch -->
    <title>continental block copy</title>
    <desc>Created with Sketch.</desc>
    <defs></defs>
    <g id="Symbols" stroke="none" stroke-width="1" fill="none" fill-rule="evenodd">
        <g id="continental-block-copy">
            <rect id="Rectangle-7-Copy-7" fill="#3C7191" x="0" y="0" width="73" height="72" rx="1"></rect>
            <path d="M49.8758365,46.4077912 C49.8758365,45.8310431 49.8417713,45.2606562 49.7878348,44.7015781 C50.4847518,44.3962409 51.1823786,44.0569773 51.8821344,43.6555154 C54.8550322,41.9408207 57.0423015,39.828905 58.4489101,37.9438717 C57.600119,36.1153824 56.8166196,34.2416579 56.2332532,32.2612067 L55.2517498,32.6485326 C56.2744153,36.3571077 55.2325881,39.8402137 51.7728419,41.8249057 C51.0014073,42.2652415 50.2413276,42.5903691 49.4890546,42.8115973 C48.5991015,38.5898861 46.1329234,35.0042941 42.3431707,33.2196263 C42.8867944,28.9972084 41.2218581,25.2532934 38.0112137,22.334213 C38.3362524,22.0967285 38.6719365,21.8670188 39.0395567,21.6542722 C43.8938467,18.8631225 46.8766801,20.5848852 49.5877018,23.1922671 L50.48901,22.5024312 C49.2122749,20.8308513 48.1079949,19.0631466 47.1080396,17.2728245 C43.8037159,18.5705077 41.9045814,18.1167426 38.1219256,20.2943907 C37.6144961,20.5813512 37.1390028,20.9001176 36.669187,21.2316064 C36.002077,20.7290722 35.2930952,20.2505692 34.5266283,19.8095265 C31.5494724,18.1004862 28.6212852,17.2756517 26.2778838,17 C25.1097315,18.6475488 23.8741586,20.25481 22.4448399,21.7553445 L23.275179,22.4041861 C25.9833618,19.6674599 29.5304,18.8277825 32.9908559,20.8188357 C33.83255,21.3036999 34.536564,21.8599508 35.1447696,22.4600232 C32.0072234,25.2836858 30.1606061,29.1011078 30.4217726,33.1652028 C26.454597,34.8403167 24.0466136,38.2117486 23.1424666,42.5232232 C22.7010385,42.3436962 22.2617395,42.1422585 21.8181823,41.8885176 C16.9638923,39.0952475 16.9695698,35.6637377 17.8779749,32.0166542 L16.8304703,31.5869204 C16.0100669,33.5186024 15.0314023,35.3654685 13.9682844,37.1162099 C16.7488557,39.3214232 17.3031248,41.1817185 21.0907485,43.3572462 C21.6726955,43.695803 22.2695461,43.9799362 22.8727839,44.2421587 C22.7862015,45.0040882 22.7315553,45.7843944 22.7315553,46.5929726 C22.7315553,50.0167076 23.4738926,52.9541647 24.4078466,55.1176768 C26.4184027,55.3056854 28.4332169,55.5721487 30.4466118,56.0605469 L30.595647,55.0060026 C26.8647987,54.0341538 24.3688136,51.3907251 24.3688136,47.41498 C24.3688136,46.5173451 24.4745576,45.6854425 24.664755,44.9107907 C28.6305112,46.1328464 32.7964004,45.7829808 36.144725,43.5551499 C39.6356976,46.3053053 43.8718463,46.7414004 48.1661896,45.324975 C48.2087711,45.7115941 48.23432,46.1102288 48.23432,46.5215859 C48.23432,52.1024718 45.2557447,53.8065645 41.6377373,54.8526272 L41.7818047,55.9849194 C43.8739753,55.7241105 45.9583393,55.6477762 48.0143157,55.6809957 C48.5331002,52.1752721 49.8758365,50.7602602 49.8758365,46.4077912 L49.8758365,46.4077912 Z M25.3354134,43.1027985 C26.5944062,40.5632692 28.969034,38.8895689 31.757412,37.9975884 C31.90006,38.301512 32.0441274,38.6004881 32.2172921,38.8959301 C32.4663938,39.3348524 32.7339475,39.7426755 33.0071788,40.1356558 C30.7979091,42.347937 28.1422434,43.4689205 25.3354134,43.1027985 L25.3354134,43.1027985 Z M37.4470089,32.0449262 C37.1865521,32.0300834 36.9395795,32.0060522 36.6734452,32.0060522 C36.0744655,32.0060522 35.4967766,32.0322038 34.9354106,32.0838001 C34.1341689,29.0353755 34.5330155,26.1664779 36.3398902,23.9273382 C37.867856,26.3035969 38.0885701,29.1993529 37.4470089,32.0449262 L37.4470089,32.0449262 Z M39.6867954,39.9745056 C39.8741539,39.7038015 40.0558349,39.4422858 40.2204834,39.1539118 C40.5022309,38.6669272 40.7541714,38.1848902 40.9798533,37.7042668 C44.1805621,38.5142586 46.5878357,40.3420411 47.6445664,43.1374317 C44.6773461,43.361487 41.9166461,42.0680446 39.6867954,39.9745056 L39.6867954,39.9745056 Z" id="continental-copy-2" fill="#FFFFFF"></path>
        </g>
    </g>
</svg>