<?xml version="1.0" encoding="UTF-8"?>
<svg width="73px" height="72px" viewBox="0 0 73 72" version="1.1" xmlns="http://www.w3.org/2000/svg" xmlns:xlink="http://www.w3.org/1999/xlink">
    <!-- Generator: Sketch 46.2 (44496) - http://www.bohemiancoding.com/sketch -->
    <title>earthpositive-full</title>
    <desc>Created with Sketch.</desc>
    <defs></defs>
    <g id="Symbols" stroke="none" stroke-width="1" fill="none" fill-rule="evenodd">
        <g id="earthpositive-full">
            <rect id="Rectangle-7-Copy-9" fill="#00975F" x="0" y="0" width="73" height="72" rx="1"></rect>
            <path d="M28.8182214,29.9593662 C29.0126436,29.8963624 29.2180581,29.8757517 29.4744434,29.8757517 C29.9254301,29.8757517 30.2657228,30.0523067 30.6811946,30.379243 C30.8129417,30.4829153 31.3210334,30.9211945 31.4467075,31.022184 C31.6539482,31.1887189 31.8385693,31.3182374 32.0227887,31.4226858 C33.2298737,32.107077 34.6985723,33.2629175 35.4372188,34.1904836 C35.7335919,34.5626585 36.4465364,35.6577551 36.3750694,35.5558877 C36.5335445,35.7817744 36.6247404,35.8689718 36.6811104,35.8912485 C37.0136527,36.0226652 37.360087,36.2268062 37.7268902,36.5033264 C37.7961854,36.4862199 37.8682095,36.4763473 37.942064,36.4745049 C38.208093,36.4678686 38.4237332,36.4524603 38.5829315,36.4311047 C38.978765,35.5286968 39.8960688,34.2352878 40.6899416,33.8683996 C40.9337958,33.7557024 41.0396294,33.6341892 41.0837209,33.4533466 C41.1446466,33.2034575 41.2995162,32.986653 41.5161457,32.8479876 L41.9171577,32.5912982 L41.9822768,32.3848767 C42.0213585,32.2609914 42.0842034,32.1459074 42.167299,32.0460571 C43.3124242,30.6700387 44.1290796,29.7500815 44.6652287,29.2445842 C44.6287772,28.8323984 44.8351719,28.3987099 45.3098624,28.2204859 C45.7068432,28.0714383 45.8228639,27.9684936 45.8208443,27.981126 C45.9171102,27.3789858 46.2047702,26.8836547 46.663703,26.5557506 L47.6742832,24.7534387 L47.7839301,24.5956379 L48.717628,23.4990243 L50.1290991,21.5654579 L51.930042,19.5571957 L52.7483198,18.0139031 C52.8087712,17.8998903 52.8907189,17.7986558 52.9896417,17.715785 L54.414024,16.5286963 C54.9110607,16.1885852 55.1742438,15.9152507 55.2204626,15.7869358 C55.4993267,15.0127397 56.4471853,13.8815517 57.1712554,13.5001766 C57.2102226,13.442238 57.2586082,13.3530268 57.3236919,13.218268 C57.3461904,13.1716837 57.4275952,12.9992444 57.4425409,12.968042 C57.497058,12.8542255 57.5410991,12.7673155 57.588377,12.6834012 C57.7555548,12.3866746 57.9243442,12.1791879 58.2217235,12.0304466 C58.20823,11.975278 58.2593623,11.9102465 58.4271679,11.6930384 C58.7182807,11.3164939 58.8523941,11.1552669 59.0233623,11.0034117 C59.3142385,10.7450533 59.5831635,10.6014991 60.0364431,10.6939123 C60.7009391,10.8293877 60.8932816,11.3031556 60.8932816,11.8193842 C60.8932816,11.8951921 60.8968597,11.9683689 60.9030225,12.035233 C61.4352885,12.1535842 61.8287807,12.5906354 61.9726354,13.1928566 C62.0080421,13.3410802 62.0091035,13.4954354 61.9757387,13.6441319 C61.7628697,14.5928206 61.6206989,15.1479752 61.5147109,15.4107717 C61.4822571,15.4912406 61.4461202,15.5889535 61.4112699,15.6910055 C61.4890666,15.7726942 61.5581722,15.8705544 61.6158205,15.9854154 C61.7674148,16.2874583 61.7761941,16.5721453 61.7262476,16.9077744 C61.6419876,17.4739837 61.5304762,17.881845 61.2086361,18.1201826 C61.1859613,18.1559216 61.1600467,18.1975211 61.1311775,18.2446114 C61.055133,18.3686522 60.9613904,18.5261143 60.8502215,18.7165773 C60.9887091,18.9918114 60.9953835,19.3226176 60.8531317,19.6099407 C60.642759,20.0348556 60.3014027,20.3772092 59.8527914,20.6428457 C59.7536152,21.2192279 59.7116781,21.4021117 59.5761184,21.7129478 C59.4594243,21.9805256 59.3017226,22.2269456 59.0953405,22.451288 C58.8660195,22.7005655 58.7875803,22.8161499 57.2967695,25.0646523 C57.2352415,25.1574101 57.2352415,25.1574101 57.1735735,25.2501832 C56.2990154,26.5650605 55.7575142,27.3242762 55.3318787,27.7811609 C55.1565427,27.9693697 54.4809945,28.6745357 54.3717036,28.7902747 C54.2189044,28.9520891 54.0854172,29.0959628 53.9620419,29.2323049 C53.3240246,29.9373783 52.9606145,30.4637043 52.9428412,30.6142206 C52.9107363,30.8861059 52.9058989,30.9261822 52.8926206,31.0247446 C52.8453345,31.3757415 52.7915797,31.6062334 52.6824133,31.8573136 C52.5791334,32.0948551 52.4572667,32.2864684 52.2035616,32.6384522 C52.034009,32.8736851 51.1423061,33.9361289 50.9591091,34.1690709 C50.5584868,34.6784773 50.2602945,35.1196408 50.0547653,35.5253878 C49.7776682,36.0724209 49.4213794,36.497426 48.9803227,36.8546901 C48.7312464,37.0564466 47.9047481,37.5930837 48.115127,37.4494186 C48.0254335,37.5106691 47.9884372,37.5430562 47.9875445,37.5443046 C47.9470179,38.2045876 47.8243507,38.590739 47.4099551,39.0796622 C47.4168051,39.0715802 47.0352997,39.5260976 46.9161358,39.6642152 C46.2709871,40.4119792 45.754078,40.8837305 45.1289627,41.1880594 C44.7837426,41.3561251 44.2257371,41.7174267 43.7854539,42.0728227 C43.5451025,42.266834 43.3498626,42.450123 43.2202251,42.6029998 C43.1427938,42.6943117 43.1180362,42.7391807 43.1257433,42.6668839 C42.9913264,43.9277941 42.1342638,45.210527 40.9022651,45.2934703 C40.8117802,45.2995621 40.7204976,45.3010014 40.6274873,45.2983582 C40.5192605,45.2952827 40.4188066,45.287876 40.3093363,45.275321 C40.2571554,45.4068831 40.176769,45.5324483 40.0585213,45.6505031 C39.7122357,45.9962242 39.4882241,46.0200274 38.8632521,45.9951875 C38.3083266,45.9731317 37.678018,45.6203658 36.6560252,44.9093663 C36.0583507,44.4935646 35.5143562,44.0834034 34.6458567,43.409895 C34.4599564,43.2657321 34.1731852,43.0655433 33.7440819,42.7783852 C33.5280786,42.6338348 32.6567415,42.0578635 32.4681924,41.9322009 C32.3212937,41.8341714 32.3212937,41.8341714 32.1744645,41.7355604 C30.9272357,40.8963114 30.210454,40.3551366 29.8316074,39.8973667 C29.5943066,39.6106302 29.2439433,39.2328313 28.5995399,38.559515 C27.4922058,37.4029856 27.2652755,37.1603357 27.0137881,36.8383148 C26.5633927,36.2615992 26.2950569,35.8805549 26.0637842,35.427776 C25.6145274,34.5482344 25.5258516,33.7331536 26.1727407,33.0809343 C26.3938808,32.8579721 26.625272,32.6724054 26.866793,32.527657 C26.8704012,32.4834016 26.8760977,32.4393679 26.8839678,32.3952685 C26.9552547,31.9958196 27.1717771,31.7265373 27.4502119,31.5842946 C27.3930222,31.3348706 27.4421647,31.0487608 27.6461757,30.7306053 C27.8361725,30.4343051 28.0861727,30.2733424 28.4516674,30.1479654 C28.5613336,30.0659853 28.6861265,30.0021724 28.8182214,29.9593662 Z" id="simpler-ep-copy-2" fill="#FFFFFF" fill-rule="nonzero"></path>
            <g id="Untitled-3" transform="translate(13.000000, 15.000000)" fill-rule="nonzero">
                <g id="Group" fill="#FFFFFF">
                    <path d="M7.806,13.342 C7,13.342 6.231,12.958 5.518,12.203 C3.863,10.445 4.673,8.531 5.325,7.88 C5.672,7.534 6.385,6.952 7.268,6.952 C7.721,6.952 8.156,7.107 8.563,7.412 C8.97,7.717 9.186,8.069 9.207,8.462 C9.25,9.268 8.449,10.014 7.97,10.459 C7.493,10.904 7,11.29 6.753,11.477 C6.953,11.662 7.378,11.979 7.949,11.979 C8.171,11.979 8.4,11.931 8.628,11.836 C9.674,11.402 9.937,10.165 9.939,10.153 L9.967,10.018 L10.105,10.013 C10.106,10.013 10.107,10.013 10.107,10.013 C10.257,10.013 10.895,10.044 11.027,10.6 C11.164,11.175 10.409,12.167 9.645,12.696 C9.016,13.131 8.415,13.342 7.806,13.342 Z M6.176,8.677 C5.457,9.447 5.853,10.278 6.052,10.593 C6.94,9.995 7.919,9.059 7.889,8.698 C7.882,8.596 7.564,8.213 7.079,8.213 C6.769,8.213 6.465,8.369 6.176,8.677 Z M43.975,26.367 C44.146,26.367 44.299,26.431 44.413,26.55 C44.805,26.948 44.62,28.041 44.336,28.677 C43.862,29.728 43.108,30.259 42.094,30.259 C41.798,30.259 41.478,30.212 41.142,30.118 C39.183,29.57 38.934,27.835 39.121,27.079 C39.262,26.52 39.74,25.171 41.263,25.328 C41.694,25.371 42.01,25.535 42.198,25.814 C42.584,26.385 42.329,27.27 42.176,27.8 C42.034,28.299 41.858,28.768 41.76,29.018 C41.842,29.033 41.948,29.047 42.067,29.047 C42.532,29.047 42.911,28.853 43.192,28.471 C43.741,27.723 43.401,26.74 43.398,26.73 L43.351,26.6 L43.466,26.525 C43.492,26.508 43.714,26.367 43.975,26.367 Z M40.822,28.671 C41.188,27.876 41.475,26.812 41.309,26.582 C41.284,26.552 41.15,26.484 40.957,26.484 C40.713,26.484 40.281,26.59 40.131,27.293 C39.956,28.109 40.54,28.523 40.822,28.671 Z M18.145,5.647 C18.56,6.583 18.96,6.82 18.965,6.823 L19.118,6.91 L19.03,7.063 C18.988,7.136 18.604,7.764 18.09,7.764 C18.063,7.764 18.035,7.762 18.008,7.759 C17.795,7.73 17.637,7.603 17.531,7.478 C17.329,7.784 16.92,8.281 16.263,8.54 C15.923,8.675 15.59,8.743 15.274,8.743 C14.57,8.743 13.986,8.406 13.585,7.77 C12.95,6.765 13.403,5.624 14.178,5.016 C14.884,4.464 15.782,4.181 16.167,4.078 C16.066,3.815 15.856,3.434 15.542,3.393 C15.478,3.385 15.408,3.38 15.332,3.38 C14.69,3.38 13.878,3.686 13.699,4.545 L13.673,4.67 L13.545,4.683 C13.545,4.683 13.519,4.685 13.477,4.685 C13.33,4.685 13.053,4.655 12.861,4.452 C12.725,4.31 12.663,4.116 12.675,3.877 C12.715,3.06 13.913,2.516 14.427,2.32 C14.616,2.248 15,2.126 15.445,2.126 C16.152,2.126 16.718,2.434 17.079,3.017 C17.464,3.639 17.641,4.192 17.813,4.727 C17.914,5.043 18.009,5.342 18.145,5.647 Z M15.479,7.421 C16.117,7.421 16.832,6.859 17.018,6.373 C16.96,6.246 16.829,5.948 16.737,5.705 C16.658,5.493 16.598,5.309 16.561,5.187 C16.156,5.277 15.057,5.572 14.732,6.189 C14.609,6.423 14.615,6.678 14.75,6.969 C14.904,7.267 15.151,7.421 15.479,7.421 Z M25.259,2.228 C24.836,2.228 24.275,2.973 24.171,3.164 C24.172,3.164 24.03,3.597 24.065,5.127 C24.088,6.017 24.37,6.545 24.373,6.551 L24.454,6.699 L24.308,6.785 C24.286,6.797 23.795,7.082 23.33,7.082 C23.072,7.082 22.866,6.998 22.719,6.831 C22.499,6.581 22.539,6.155 22.629,5.219 C22.69,4.58 22.773,3.704 22.812,2.501 C22.841,1.601 22.616,1.116 22.614,1.111 L22.538,0.95 L22.7,0.876 C23.022,0.733 23.487,0.74 23.834,0.913 C24.104,1.048 24.145,1.345 24.139,1.609 C24.536,1.199 25.068,0.834 25.587,0.834 C25.785,0.834 25.967,0.889 26.127,0.995 C26.58,1.355 26.625,1.699 26.584,1.927 C26.507,2.359 26.066,2.682 25.858,2.751 L25.637,2.825 L25.628,2.592 C25.628,2.585 25.61,2.365 25.364,2.246 C25.339,2.236 25.301,2.228 25.259,2.228 Z M31.462,8.577 C31.056,8.577 30.666,8.4 30.418,8.103 C29.782,7.336 30.226,6.314 30.549,5.568 C30.819,4.948 31.254,3.911 31.421,3.515 C31.396,3.507 31.368,3.499 31.345,3.492 C31.094,3.416 30.783,3.321 30.693,3.073 C30.567,2.728 30.987,2.353 31.073,2.281 L31.177,2.194 L31.287,2.272 C31.288,2.274 31.43,2.372 31.597,2.431 C31.7,2.468 31.785,2.49 31.861,2.511 C31.87,2.513 31.879,2.516 31.888,2.518 C31.925,2.418 31.968,2.294 32.017,2.151 C32.061,2.022 32.11,1.879 32.165,1.723 C32.286,1.384 32.225,0.974 32.224,0.97 L32.198,0.793 L32.376,0.77 C32.376,0.77 32.563,0.747 32.789,0.747 C33.233,0.747 33.51,0.834 33.637,1.012 C33.921,1.384 33.694,1.861 33.53,2.21 L33.473,2.329 C33.38,2.536 33.278,2.767 33.211,2.921 C33.276,2.939 33.351,2.958 33.427,2.977 C33.968,3.114 34.359,3.23 34.463,3.495 C34.62,3.908 34.064,4.294 34.001,4.337 L33.916,4.393 L33.825,4.348 C33.824,4.347 33.512,4.191 33.288,4.091 C33.15,4.028 32.905,3.947 32.747,3.896 C32.624,4.183 32.344,4.843 32.13,5.366 L32.019,5.634 C31.781,6.204 31.511,6.849 31.636,7.211 C31.67,7.309 31.744,7.439 31.994,7.439 C32.092,7.439 32.17,7.417 32.171,7.417 L32.351,7.366 L32.391,7.55 C32.462,7.893 32.351,8.12 32.246,8.249 C32.077,8.458 31.791,8.577 31.462,8.577 Z M27.953,42.799 L28.075,42.943 C28.276,43.172 28.326,43.447 28.213,43.699 C28.065,44.027 27.651,44.263 27.229,44.263 C27.095,44.263 26.966,44.24 26.845,44.195 C26.052,43.894 25.956,42.963 25.887,42.283 C25.83,41.74 25.726,40.849 25.681,40.474 C25.671,40.476 25.66,40.478 25.65,40.48 C25.419,40.531 25.128,40.564 24.981,40.437 C24.733,40.224 24.89,39.765 24.923,39.675 L24.971,39.548 L25.106,39.562 C25.113,39.564 25.247,39.575 25.384,39.552 C25.47,39.536 25.539,39.519 25.601,39.503 C25.602,39.503 25.602,39.503 25.603,39.503 C25.589,39.421 25.571,39.325 25.55,39.214 L25.484,38.841 C25.433,38.559 25.227,38.288 25.225,38.286 L25.115,38.145 L25.259,38.038 C25.31,37.999 25.779,37.657 26.119,37.657 C26.186,37.657 26.246,37.669 26.3,37.694 C26.671,37.855 26.704,38.302 26.728,38.628 L26.736,38.737 C26.753,38.911 26.771,39.1 26.786,39.239 C26.831,39.225 26.88,39.214 26.929,39.2 C27.3,39.096 27.731,39.003 27.919,39.157 C28.221,39.407 27.965,39.932 27.935,39.991 L27.89,40.081 L27.788,40.087 C27.787,40.087 27.498,40.102 27.295,40.12 C27.18,40.13 26.989,40.167 26.854,40.194 C26.884,40.465 26.949,41.032 27.005,41.483 L27.033,41.717 C27.092,42.223 27.16,42.797 27.391,43.002 C27.564,43.155 27.819,42.938 27.82,42.936 L27.953,42.799 Z M8.492,25.675 C8.573,26.363 8.368,27.023 7.913,27.532 C7.423,28.083 6.7,28.4 5.93,28.4 C5.339,28.4 4.754,28.211 4.235,27.854 C2.867,26.913 3.013,25.519 3.169,24.887 C2.77,24.95 2.473,25.002 2.284,25.043 C1.734,25.16 1.249,25.457 1.244,25.459 L1.129,25.531 L1.031,25.437 C1.007,25.413 0.446,24.866 0.632,24.339 C0.763,23.968 1.44,23.873 2.457,23.769 C2.577,23.756 2.693,23.746 2.799,23.733 C3.576,23.643 5.429,23.383 6.393,23.156 C7.319,22.941 7.601,22.719 7.603,22.715 L7.766,22.583 L7.869,22.766 C7.901,22.824 8.175,23.341 8.049,23.695 C7.996,23.846 7.898,23.947 7.789,24.017 C8.087,24.36 8.4,24.893 8.492,25.675 Z M7.291,26.224 C7.595,25.414 7.053,24.676 6.74,24.338 C6.37,24.409 5.613,24.521 4.817,24.638 L4.344,24.707 C4.201,25.055 3.952,25.901 4.522,26.637 C4.79,26.985 5.234,27.184 5.74,27.184 C6.333,27.184 7.042,26.887 7.291,26.224 Z M7.645,31.553 C8.861,30.805 10.125,30.953 11.225,31.983 C11.867,32.584 12.215,33.453 12.155,34.305 C12.101,35.065 11.733,35.719 11.117,36.153 C10.549,36.553 9.912,36.766 9.279,36.766 C8.406,36.766 7.612,36.366 6.983,35.608 C6.317,34.805 6.283,34.002 6.371,33.471 C6.501,32.69 6.989,31.953 7.645,31.553 Z M10.209,35.244 C10.335,35.152 11.473,34.283 10.714,33.11 C10.338,32.571 9.857,32.284 9.324,32.284 C8.993,32.284 8.651,32.397 8.334,32.61 C7.898,32.904 7.622,33.326 7.557,33.799 C7.498,34.22 7.614,34.629 7.883,34.947 C8.249,35.382 8.67,35.601 9.133,35.601 C9.601,35.601 10.008,35.377 10.209,35.244 Z M16.549,37.051 C16.959,37.145 17.574,37.469 17.588,37.87 C17.587,38.407 16.95,38.581 16.923,38.589 L16.82,38.616 L16.749,38.536 C16.63,38.403 16.246,38.057 15.913,38.057 C15.809,38.057 15.717,38.091 15.633,38.157 C15.365,38.378 15.464,38.725 15.648,39.274 C15.869,39.933 16.144,40.753 15.326,41.378 C15.029,41.605 14.676,41.72 14.279,41.72 C13.637,41.72 13.049,41.415 12.775,41.13 C12.643,40.994 12.578,40.859 12.582,40.732 C12.594,40.327 13.115,40.036 13.174,40.005 L13.316,39.929 L13.404,40.064 C13.508,40.226 13.853,40.644 14.195,40.644 C14.287,40.644 14.375,40.615 14.462,40.554 C14.727,40.359 14.629,40.008 14.447,39.449 C14.255,38.859 14.016,38.123 14.542,37.543 C14.882,37.197 15.437,36.994 16.031,36.994 C16.211,36.994 16.385,37.014 16.549,37.051 Z M21.01,38.859 C21.284,38.859 21.502,38.93 21.659,39.066 C21.908,39.286 21.81,39.642 21.615,40.347 C21.484,40.826 21.303,41.482 21.134,42.396 C20.973,43.258 21.126,43.734 21.127,43.74 L21.164,43.851 L21.075,43.927 C20.946,44.04 20.655,44.122 20.384,44.122 C20.08,44.122 19.845,44.021 19.721,43.837 C19.518,43.538 19.662,42.94 19.956,41.819 C20.02,41.575 20.089,41.316 20.154,41.046 C20.449,39.841 20.269,39.187 20.267,39.179 L20.221,39.019 L20.379,38.966 C20.475,38.933 20.727,38.859 21.01,38.859 Z M21.416,36.828 C21.903,36.775 22.305,37.109 22.323,37.558 C22.342,37.998 21.975,38.396 21.504,38.443 C21.471,38.447 21.44,38.449 21.409,38.449 C20.964,38.449 20.614,38.133 20.595,37.715 C20.577,37.271 20.945,36.875 21.416,36.828 Z M33.359,40.092 C33.794,40.854 34.219,41.119 34.224,41.123 L34.324,41.185 L34.306,41.3 C34.263,41.575 33.825,42.128 33.362,42.128 C33.312,42.128 33.262,42.121 33.214,42.107 C32.866,42.011 32.59,41.464 32.092,40.421 C31.982,40.19 31.865,39.946 31.741,39.696 C31.187,38.589 30.625,38.202 30.62,38.198 L30.481,38.104 L30.567,37.961 C30.643,37.836 31.05,37.213 31.593,37.213 C31.941,37.221 32.096,37.555 32.405,38.223 C32.614,38.672 32.899,39.287 33.359,40.092 Z M31.141,35.631 C31.438,35.955 31.415,36.496 31.089,36.836 C30.923,37.007 30.7,37.107 30.475,37.107 C30.261,37.107 30.066,37.021 29.923,36.867 C29.623,36.543 29.647,36.004 29.975,35.662 C30.297,35.328 30.847,35.315 31.141,35.631 Z M37.653,31.752 C38.032,31.811 38.711,32.488 39.383,34.196 C40.075,35.96 40.2,36.794 39.829,37.167 C39.695,37.3 39.516,37.364 39.28,37.364 C39.28,37.364 39.28,37.364 39.279,37.364 C38.835,37.364 38.154,37.148 36.85,36.593 C35.521,36.028 34.867,36.243 34.864,36.245 L34.722,36.29 L34.653,36.157 C34.603,36.057 34.179,35.173 34.695,34.823 C34.779,34.766 34.888,34.739 35.029,34.739 C35.552,34.739 36.503,35.139 37.133,35.407 C37.3,35.477 37.442,35.538 37.544,35.577 L37.619,35.604 C37.947,35.731 38.576,35.973 38.875,36.043 C38.791,35.658 38.446,34.67 38.105,34.125 C37.918,33.828 37.352,32.924 36.849,32.82 L36.71,32.791 L36.71,32.648 C36.71,32.293 37.178,31.746 37.583,31.746 L37.653,31.752 Z M4.672,18.821 C4.1141924,18.821 3.662,18.3688076 3.662,17.811 C3.662,17.2531924 4.1141924,16.801 4.672,16.801 C5.2298076,16.801 5.682,17.2531924 5.682,17.811 C5.682,18.3688076 5.2298076,18.821 4.672,18.821 Z M42.658,18.822 C42.1001924,18.822 41.648,18.3698076 41.648,17.812 C41.648,17.2541924 42.1001924,16.802 42.658,16.802 C43.2158076,16.802 43.668,17.2541924 43.668,17.812 C43.668,18.3698076 43.2158076,18.822 42.658,18.822 Z" id="Combined-Shape"></path>
                </g>
                <path d="M36.875,11.236 L36.946,11.21 L36.976,11.14 C36.98,11.132 37.34,10.296 38.409,9.078 C38.581,8.883 38.741,8.694 38.894,8.513 C39.101,8.27 39.293,8.043 39.484,7.835 C40.234,7.704 40.905,8.156 41.116,8.615 C41.318,9.053 40.97,9.536 40.065,10.617 C39.169,11.687 38.87,12.22 38.866,12.228 C38.853,12.246 38.568,12.67 38.751,13.066 C38.959,13.524 39.648,13.559 39.855,13.559 L40.062,13.55 L40.054,13.373 C40.054,13.369 40.039,12.903 40.609,12.054 C40.797,11.773 41.012,11.512 41.242,11.235 C41.618,10.781 42.007,10.311 42.263,9.742 C42.768,8.625 42.536,7.76 41.576,7.167 C41.378,7.044 40.98,6.841 40.6,6.711 C40.72,6.588 40.832,6.473 40.938,6.365 C41.841,5.442 42.215,5.059 42.215,4.665 C42.217,4.077 41.67,3.755 41.126,3.697 L41.001,3.684 L40.949,3.798 C40.944,3.809 40.421,4.928 38.878,6.564 C38.545,6.916 38.22,7.254 37.914,7.573 C36.698,8.835 35.821,9.746 35.71,10.264 C35.658,10.504 35.708,10.726 35.854,10.908 C36.126,11.243 36.62,11.33 36.875,11.236 Z" id="Shape" fill="#00975F"></path>
            </g>
        </g>
    </g>
</svg>