<?xml version="1.0" encoding="UTF-8"?>
<svg width="73px" height="72px" viewBox="0 0 73 72" version="1.1" xmlns="http://www.w3.org/2000/svg" xmlns:xlink="http://www.w3.org/1999/xlink">
    <!-- Generator: Sketch 46.2 (44496) - http://www.bohemiancoding.com/sketch -->
    <title>fairshare block copy</title>
    <desc>Created with Sketch.</desc>
    <defs></defs>
    <g id="Symbols" stroke="none" stroke-width="1" fill="none" fill-rule="evenodd">
        <g id="fairshare-block-copy">
            <rect id="Rectangle-7-Copy-13" fill="#1F3162" x="0" y="0" width="73" height="72" rx="1"></rect>
            <path d="M21.3672992,23.5527038 C22.2611604,24.6991671 23.9319908,24.9016387 25.0795033,23.9927585 C26.2119325,23.0925868 26.4202486,21.4324601 25.5091913,20.2811766 C25.1011556,19.7666046 24.5403853,19.4461334 23.9422553,19.3309151 C23.9585127,19.5454347 23.9609617,19.7639043 23.9470106,19.9864796 C23.9353392,20.1712031 23.9154678,20.3579794 23.8762469,20.5495585 C23.8258669,20.7740603 23.5491754,21.8193758 22.6559822,22.3350612 C22.6172679,22.3574129 22.5772189,22.3791944 22.5357574,22.39911 C22.2276732,22.5639101 21.877655,22.6020861 21.5609677,22.5975553 C21.3683268,22.5948125 21.1880013,22.5762446 21.0366017,22.5607523 C20.9860998,22.5557204 20.926304,22.5496857 20.875841,22.5453017 C20.8738271,22.5377496 20.8724222,22.5295106 20.8705145,22.5215619 C20.9141247,22.5071096 20.9697134,22.4820544 21.028448,22.435742 L20.8107314,22.1625666 C20.8219976,22.2830984 20.8424411,22.4026892 20.8705145,22.5215619 C20.8216925,22.5380177 20.7883297,22.5411907 20.7875366,22.5409782 C20.8049243,22.5403247 20.8379503,22.542374 20.875841,22.5453017 C20.9633397,22.9023734 21.1245927,23.2466948 21.3672992,23.5527038 Z M22.6477874,20.0903433 C22.6766978,19.8634887 22.678162,19.6343801 22.6594524,19.4028409 C22.3566355,19.4972271 22.0647153,19.6453208 21.7996414,19.8550082 C21.3292801,20.2217649 21.022502,20.7203289 20.8837938,21.2586146 C20.9767788,21.2629173 21.0718736,21.2720353 21.1684482,21.2819748 C21.2757577,21.2930907 21.4069834,21.3061525 21.5349278,21.3100474 C21.6978031,21.3152271 21.8549971,21.3059219 21.9492508,21.2555267 C22.3652367,21.048876 22.5736324,20.4820878 22.6193972,20.280362 C22.6322583,20.2172953 22.6395006,20.1537856 22.6477874,20.0903433 Z M17.892826,18.4845412 C17.9462711,18.5602746 17.9991746,18.6356503 18.0500745,18.7058141 C18.1037995,18.77971 18.1568662,18.8513044 18.208046,18.9196307 L18.2232174,17.8875414 C18.2233389,17.8743989 18.2572628,16.5740582 19.1617686,16.0518415 C19.5687711,15.8168585 20.0991738,15.7700661 20.7386161,15.9127166 L21.6075415,16.1085693 C21.5707146,16.0453638 21.5364121,15.9830473 21.4978539,15.9191654 C21.4594409,15.8555349 21.4199835,15.7918371 21.3795878,15.7276754 C20.9330583,15.0181257 20.3642775,14.2651937 19.6937804,13.5119946 C18.3987118,12.1553902 18.0110649,11.8613322 17.4226643,11.4163695 C17.0736032,11.1519881 16.6393905,10.8231402 15.921432,10.1978995 C15.7353936,10.0364877 15.2905266,9.71647256 14.7639837,9.34439731 C14.7826721,9.78141921 14.801859,10.1444119 14.8205865,10.2505803 C14.8730854,10.5423861 14.9201829,10.8178694 14.9653234,11.0824159 C15.1450041,12.136753 15.2865403,12.9694309 15.647775,14.0433027 C15.9235348,14.8588205 16.418198,15.9391191 16.7856211,16.648085 C17.188228,17.423216 17.5609794,18.0107841 17.892826,18.4845412 Z M39.1599588,21.7811545 L56.4455613,43.687442 C56.5102364,43.7704344 58.0045039,45.7373789 56.0043925,47.3030847 L40.5203021,59.524993 C40.5192965,59.5255736 40.4196553,59.6032127 40.2509718,59.7006022 C39.5176634,60.123978 38.109603,60.6094431 36.917722,59.1064494 L19.6297889,37.1699999 C19.6131679,37.1487587 17.9683972,35.0360865 18.0110037,32.4027165 L18.1787442,20.9426505 C18.10094,20.8814278 18.0479283,20.8302482 18.0197089,20.7891117 C17.9729583,20.7209097 17.9195625,20.6481645 17.8624812,20.5725194 C17.7821128,20.4664094 17.6943346,20.3538514 17.595373,20.2283093 C17.1023348,19.601923 16.4263694,18.7446207 15.6446219,17.240809 C15.2829371,16.5429433 14.7479352,15.3950981 14.4296713,14.4542909 C14.0362507,13.2840321 13.8792037,12.3641102 13.6976723,11.2984397 C13.6535193,11.0373453 13.6073031,10.7657106 13.5551049,10.476748 C13.5137749,10.2431852 13.4913162,9.71951514 13.4519801,8.7369959 C13.4478465,8.63346288 13.4434692,8.52370202 13.4387912,8.41109807 C12.4897559,7.73860302 11.5639006,7.06445652 11.1095688,6.63225483 C10.4193639,5.97322547 9.91042657,5.49579214 9.51932326,5.1289827 C8.94940452,4.59418983 7,2.5 5,1.77635684e-15 L6.5,1.77635684e-15 L8.67150879,2.46508789 C8.93495141,2.7263265 10.2122012,4.01626033 10.3989004,4.19144713 C10.7920641,4.56008367 11.3036425,5.04034966 11.9960529,5.70145752 C12.2670596,5.95894935 12.7789962,6.34984842 13.3622648,6.77431093 C13.2963802,5.60298976 13.1311531,4.23032292 12.9106445,3.08117676 C12.690136,1.9320306 12.3923884,0.216142608 12.3248291,1.77635684e-15 L13.5551049,1.77635684e-15 C13.7913172,1.53357994 14.6402728,6.46649935 14.6965727,7.7251402 C14.7811619,7.78456846 14.8652094,7.84363908 14.9474867,7.90138538 C15.7948973,8.49713744 16.4641724,8.96780792 16.7642788,9.22693444 C17.450789,9.82441109 17.8479735,10.1256997 18.1990561,10.3912602 C18.8136515,10.8566294 19.2572956,11.1931044 20.6389652,12.6404888 C21.7116368,13.8452767 22.5334445,15.0306586 23.0629789,16.1069134 C23.0932099,16.168564 23.1245242,16.2309299 23.2395001,16.4759385 L34.8876451,19.0989474 C34.9134871,19.1048092 37.5307001,19.6994139 39.1599588,21.7811545 Z" id="Fill-1" fill="#FFFFFF"></path>
        </g>
    </g>
</svg>