<?xml version="1.0" encoding="UTF-8"?>
<svg width="73px" height="72px" viewBox="0 0 73 72" version="1.1" xmlns="http://www.w3.org/2000/svg" xmlns:xlink="http://www.w3.org/1999/xlink">
    <!-- Generator: Sketch 46.2 (44496) - http://www.bohemiancoding.com/sketch -->
    <title>salvage block copy</title>
    <desc>Created with Sketch.</desc>
    <defs></defs>
    <g id="Symbols" stroke="none" stroke-width="1" fill="none" fill-rule="evenodd">
        <g id="salvage-block-copy">
            <rect id="Rectangle-7-Copy-11" fill="#CD7126" x="0" y="0" width="73" height="72" rx="1"></rect>
            <path d="M21.447779,55.5097656 C22.3275876,55.5097656 22.9531851,55.4319247 23.0531483,55.4188422 C26.2513088,54.8157389 28.8046736,52.5020983 32.6290936,48.7650815 C34.2695493,47.1618208 35.7862096,45.6167773 36.9586257,44.0998611 C38.0939694,45.4807193 39.5371467,46.9165239 41.13722,48.4798829 C45.5634053,52.8029959 49.5586233,56.2450023 53.681609,54.5710961 L53.7749521,54.5279238 C58.6407107,52.7022606 58.9353042,48.6584591 58.4295301,46.8812012 C57.9886328,43.5726363 55.1645068,40.8279273 51.8948495,37.6501874 L51.189149,36.9607396 C48.3537688,34.1898656 45.6898488,31.7617531 43.0874955,30.6889879 C43.0901435,30.1532594 43.0888195,29.6051026 43.0874955,29.0438632 L43.0861714,28.065292 C43.0861714,21.6568282 42.7498714,16.2190861 38.6202657,14.5693825 C34.6462319,12.9818209 31.0257103,14.9370009 29.503754,17.6869429 C27.9553173,20.4820195 27.6461596,24.1876383 27.6461596,29.2603786 C27.6461596,30.56405 27.6607238,31.8265115 27.7256006,33.0202898 C25.683968,34.1905197 23.7667929,36.0744 21.5689265,38.2303964 L20.8493238,38.9361974 C16.2496924,43.4280746 12.5788583,47.4790715 14.1994538,51.4384909 C15.1375191,54.9845032 19.1539214,55.5097656 21.447779,55.5097656 L21.447779,55.5097656 Z M27.8990467,35.0958288 C27.9864317,35.8068629 28.1009591,36.4832282 28.2538829,37.1183837 C23.8641081,39.8715964 19.290295,45.474178 17.9834913,48.2744877 C17.9278826,48.3856889 17.456533,49.3871545 17.8914722,50.4690774 C18.1026528,50.9891069 18.6018068,51.7047198 19.8814682,52.1822311 C20.0019536,52.2155915 22.8849983,52.9835344 24.9987897,50.9197697 C26.0540305,49.8888685 27.2568989,48.8232986 28.4207089,47.7930516 C31.2964715,45.2445801 34.0140143,42.839362 35.1136095,40.4472265 C35.2797735,39.8558974 35.3737786,38.9335809 35.1242016,38.0891054 C35.1083134,37.9294989 35.0507187,37.7777418 34.9560516,37.6488792 C34.7223628,37.1517441 34.3403842,36.7147885 33.7485491,36.4276276 C33.5373685,35.8258325 33.3347941,35.1213397 33.1573759,34.3462015 C34.2860995,34.6955043 35.8729326,35.4811085 37.1446499,37.2498629 C38.2554993,39.9435501 35.9450915,42.9224359 31.3017676,47.4614101 C27.7295726,50.9518218 25.3681902,53.1071641 22.7525967,53.6016826 C22.693678,53.6095321 16.9017703,54.3081378 15.9829032,50.8674396 C14.8674198,48.1286178 17.4088684,44.8959314 22.1766498,40.2392147 L22.9008865,39.530143 C24.7088303,37.7555016 26.3201577,36.1731729 27.8990467,35.0958288 L27.8990467,35.0958288 Z M38.062855,42.4985628 C38.144282,42.3651213 38.2204129,42.2336422 38.2945578,42.1002006 C38.6659442,41.9628344 38.9943002,41.8058443 39.2822737,41.6416589 C41.8449065,45.9523435 47.1422943,49.7966368 50.1405283,51.1310521 L50.3371447,51.1951563 C50.4741804,51.2219755 51.7127973,51.4365285 53.3976075,50.4003943 C55.4961728,49.1065348 54.103308,45.9850497 53.9278759,45.6148149 C51.7339815,41.2177859 46.2942621,36.2418561 42.8908791,34.7282105 C41.8813169,34.2853678 39.7324391,33.9452228 37.977456,35.3116901 C37.5233185,34.8073597 37.0532928,34.385449 36.5812812,34.0328755 C37.1711303,33.1563479 38.2660914,32.3504657 38.6381399,32.2621588 C38.6368159,32.2621588 38.5447968,32.2830908 38.3342783,32.2287984 L38.3640686,32.1463787 C38.4494676,32.1777767 38.5428108,32.2000169 38.6407879,32.2065582 C38.7533293,32.2130994 38.8605746,32.2019793 38.9638478,32.1731978 L38.97775,32.2111371 C39.8257822,31.8801498 40.720817,31.8781874 41.6866866,32.1633859 C41.7846638,32.2150618 41.8958811,32.2530011 42.0110705,32.2687001 C44.1705405,33.0340265 46.6927909,35.169745 49.859175,38.2650651 L50.5701715,38.9577836 C53.7186814,42.0177809 56.2065074,44.4354273 56.589148,47.2435865 C56.6315165,47.403193 57.6311485,51.1761867 52.9917967,52.8481305 L52.8468169,52.9161595 C50.1160341,53.9372488 47.0707974,51.6792089 42.463884,47.1768657 C40.724789,45.4754863 39.1809864,43.9363299 38.062855,42.4985628 L38.062855,42.4985628 Z M20.4766133,50.4376794 C20.031082,50.2702234 19.7523766,50.0582869 19.6471173,49.8064487 C19.5034616,49.4656495 19.6775697,49.0751368 19.6835278,49.0627084 C20.8347596,46.5933861 24.9312649,41.5631639 28.8503521,38.9394681 C29.4600614,40.3373334 30.3749565,41.422527 31.7446509,42.0799228 C30.502724,43.4647056 28.8126177,44.9613439 27.1582597,46.4272383 C25.9792235,47.4751468 24.7578188,48.5544532 23.6708018,49.6174065 C22.35804,50.9014541 20.4971356,50.4389877 20.4766133,50.4376794 L20.4766133,50.4376794 Z M50.7853241,49.3963122 C47.8254865,48.030499 42.9133874,44.2934822 40.7559034,40.4544218 C40.9379556,40.2405229 41.0233546,40.0959613 41.0273267,40.0828788 C41.7588455,39.1553293 42.2672676,38.0413543 42.5942995,36.63891 C45.3859871,38.1067668 50.1994471,42.3396104 52.2285015,46.4017274 C52.5389832,47.0695892 52.9202998,48.5184763 52.3966515,48.8422683 C51.5611974,49.3564106 50.9912086,49.4048159 50.7853241,49.3963122 L50.7853241,49.3963122 Z M32.4688877,40.3739644 C30.006218,39.0859921 29.5256002,35.4255079 29.5256002,29.2603786 C29.5256002,24.6088949 29.8036436,21.0085902 31.1581119,18.5647788 C32.2802154,16.5356827 34.9580376,15.0966074 37.9086071,16.2740326 C40.9564918,17.4920136 41.2047448,22.3338477 41.2047448,28.065292 L41.2060688,29.0484421 C41.2073928,29.424564 41.2100409,29.7961071 41.2100409,30.1630713 C40.7069148,30.0930799 40.2090848,30.0845763 39.7072828,30.1408311 C39.8429944,25.9760164 39.1809864,21.592724 38.3766468,19.4923282 C38.3303062,19.3758939 37.8841128,18.3332185 36.7653194,17.8936464 C36.2469671,17.6895594 35.3936389,17.5508848 34.2874235,18.0480199 C32.0134262,19.0717258 31.4884539,21.5488976 31.3970968,22.1081746 C29.7381048,26.9382345 30.8271079,34.0498828 32.084261,37.3362074 C32.1253055,37.4526417 32.4642536,38.3455224 33.3784866,38.8406952 C33.4559415,39.3234395 33.3387661,39.8290782 33.3467102,39.8290782 L33.3480342,39.8290782 C33.246085,40.047556 33.1203035,40.2706127 32.9746617,40.5015188 C32.8157798,40.4158285 32.6476298,40.3739644 32.4860999,40.3739644 L32.4688877,40.3739644 L32.4688877,40.3739644 Z M39.0062163,36.8698162 C39.5867973,36.3530573 40.226959,36.1869095 40.7751016,36.1699023 C40.5063264,37.3368615 40.0938954,38.2552532 39.4649879,39.0624436 C39.4583678,39.074872 39.394153,39.1756072 39.2617514,39.3221313 C39.3643626,38.505129 39.2935278,37.6900891 39.0062163,36.8698162 L39.0062163,36.8698162 Z M32.7773834,32.3511198 C32.2874975,29.1589892 32.2398329,25.3689883 33.2050405,22.6242793 L33.248733,22.4326206 C33.2513811,22.4123427 33.5320725,20.4152988 35.074551,19.7206179 C35.4691078,19.5420417 35.7981257,19.5021401 36.0536608,19.5976424 C36.3720866,19.7173473 36.5786331,20.0568382 36.6203396,20.1523405 C37.3703946,22.1140617 38.0065843,26.5732326 37.8046719,30.6137635 C36.8222521,31.0219376 35.6743302,32.0528388 34.987828,33.073274 C34.1523739,32.6794906 33.3791486,32.4655917 32.7773834,32.3511198 L32.7773834,32.3511198 Z" id="salvage-copy-2" fill="#FFFFFF"></path>
        </g>
    </g>
</svg>