<?xml version="1.0" encoding="utf-8"?>
<!-- Generator: Adobe Illustrator 14.0.0, SVG Export Plug-In . SVG Version: 6.00 Build 43363)  -->
<!DOCTYPE svg PUBLIC "-//W3C//DTD SVG 1.1//EN" "http://www.w3.org/Graphics/SVG/1.1/DTD/svg11.dtd">
<svg version="1.1" id="Calque_1" xmlns="http://www.w3.org/2000/svg" xmlns:xlink="http://www.w3.org/1999/xlink" x="0px" y="0px"
	 width="120px" height="120px" viewBox="-15 -15 120 120" enable-background="new -15 -15 120 120" xml:space="preserve">
<g>
	<path fill="#CBE6E3" d="M16.183,102.512l-7.918,2.035l-2.191-6.261l-0.501,0.031L-5.695,62.949l4.57-11.769l1.188-2.224
		L10.61,31.273l9.891-6.259l1.784-2.067l0.375-0.938l-1.909-1.628c0,0-4.414-4.382-5.978-9.86c0,0-2.721-8.764,1.816-16.308
		c0,0,4.224-7.261,12.895-7.543c0,0,6.604-0.782,12.677,7.606c0,0,3.881,5.258,4.194,12.739c0,0,0.031,5.696-1.847,9.797
		l3.069,1.691l11.735,1.001c0,0,15.648,9.42,18.937,11.924l9.922,8.419l2.815,15.493l3.821,20.908l0.97,6.98l-7.859,1.908
		l-2.503-6.573l-0.657,0.063L73.582,47.641l-4.662-2.035l-3.85-1.033l3.13,14.615l4.004,16.466l3.261,13.494l0.594,3.631
		l-20.376,5.601c0,0-19.531,4.132-26.293,5.196l-0.969-3.036l-3.945-16.777l-4.414-17.12l-3.005-10.548l-3.037,2.785l-3.098,4.103
		l1.315,9.045l3.349,23.537l-0.157,0.376L16.183,102.512z"/>
	<path fill="#AECCC7" d="M37.223,30.019c0,0-8.124,2.265-14.136-6.753L22.3,21.262c0,0-3.08-6.371-3.724-9.163
		c0,0-1.646-7.516,0-10.594c0,0,1.791-6.299,8.734-7.802c0,0,5.869-2.29,10.235,1.573c0,0,4.652,4.151,6.013,13.1
		c0,0,1.146,7.73,0.931,10.594C44.488,18.971,44.129,27.323,37.223,30.019z"/>
	<g>
		<path fill="#08354A" d="M60.518,20.744c-0.579,17.055,3.977,23.746,4.171,24.02c0.134,0.195,0.397,0.239,0.588,0.104
			c0.192-0.132,0.239-0.398,0.105-0.589c-0.045-0.069-4.583-6.781-4.016-23.509c0.005-0.233-0.177-0.43-0.41-0.439
			C60.722,20.324,60.521,20.505,60.518,20.744z"/>
		<path fill="#08354A" d="M44.147,17.486c-0.254,9.846-7.037,12.223-7.368,12.259c-0.236,0.029-0.861,0.379-0.832,0.611
			c0.029,0.235,0.693,0.261,0.924,0.233c0.09-0.009,7.852-2.479,8.124-13.08c0.008-0.237-0.177-0.432-0.415-0.437
			C44.35,17.066,44.154,17.252,44.147,17.486z"/>
		<path fill="#08354A" d="M9.507,32.81c-0.207,0.116-0.278,0.375-0.162,0.578c8.164,14.612,7.208,22.655,7.196,22.737
			c-0.032,0.232,0.13,0.447,0.366,0.479c0.231,0.027,0.446-0.13,0.476-0.365c0.047-0.331,1.024-8.367-7.299-23.262
			C9.97,32.768,9.712,32.696,9.507,32.81z"/>
		<path fill="#08354A" d="M22.562,22.413c-0.201,0.113-0.278,0.37-0.166,0.578c5.099,9.299,14.495,7.609,14.581,7.574
			c0.217-0.082,0.327-0.328,0.245-0.546c-0.084-0.221-0.332-0.329-0.549-0.249c-0.314,0.121-8.794,1.446-13.531-7.188
			C23.027,22.376,22.769,22.299,22.562,22.413z"/>
		<path fill="#08354A" d="M51.412,96.131c-10.132,2.457-22.812,4.903-22.937,4.931l-0.46,0.086l-0.098-0.453
			C22.851,77.69,16.639,56.11,16.577,55.894l0.915-0.265c0.066,0.217,6.208,21.546,11.259,44.403
			c2.362-0.456,13.413-2.641,22.437-4.83c9.098-2.207,21.282-5.666,23.746-6.37c-0.951-3.816-7.688-30.938-10.499-44.426
			l0.934-0.192c3.009,14.432,10.525,44.532,10.601,44.835l0.113,0.445l-0.445,0.13C75.499,89.661,61.547,93.671,51.412,96.131
			L51.412,96.131z"/>
		<polygon fill="#08354A" points="5.408,98.842 -6.208,62.958 -1.356,50.9 -0.472,51.256 -5.19,62.994 6.034,97.683 15.121,95.217 
			10.394,62.822 13.695,58.603 14.446,59.189 11.395,63.088 16.188,95.916 		"/>
		<polygon fill="#08354A" points="95.391,76.619 84.511,79.154 73.164,47.98 68.627,45.995 69.013,45.122 73.923,47.27 
			73.991,47.462 85.118,78.033 94.289,75.894 87.722,40.026 77.998,31.933 78.608,31.203 88.599,39.515 		"/>
		<polygon fill="#08354A" points="8.123,104.896 5.818,98.541 6.491,98.296 8.577,104.047 15.772,102.234 15.055,95.748 
			15.766,95.672 16.553,102.78 		"/>
		<polygon fill="#08354A" points="9.053,104.19 6.833,98.276 7.169,98.153 9.387,104.062 		"/>
		<polygon fill="#08354A" points="9.547,103.923 7.674,98.063 8.019,97.951 9.888,103.814 		"/>
		<path fill="#08354A" d="M10.285,103.741c-0.654-2.184-1.754-5.883-1.745-6.082l0.353-0.002c0.03,0.243,1.054,3.708,1.738,5.981
			L10.285,103.741L10.285,103.741z"/>
		<polygon fill="#08354A" points="10.973,103.567 9.458,97.555 9.804,97.463 11.316,103.48 		"/>
		<polygon fill="#08354A" points="12.081,103.168 11.731,103.247 10.357,97.33 10.705,97.251 		"/>
		<polygon fill="#08354A" points="12.802,103.129 12.452,103.201 11.211,97.185 11.565,97.112 		"/>
		<polygon fill="#08354A" points="13.385,102.994 13.033,103.053 12.045,96.909 12.395,96.852 		"/>
		<polygon fill="#08354A" points="14.073,102.833 13.717,102.88 12.86,96.573 13.216,96.524 		"/>
		<polygon fill="#08354A" points="14.671,102.76 14.315,102.796 13.614,96.454 13.969,96.41 		"/>
		<polygon fill="#08354A" points="15.292,102.549 14.933,102.578 14.432,96.116 14.787,96.089 		"/>
		<polygon fill="#08354A" points="96.169,83.541 87.705,85.519 85.118,78.701 85.787,78.447 88.153,84.681 95.379,82.993 
			94.569,76.798 95.276,76.709 		"/>
		<polygon fill="#08354A" points="95.024,83.332 94.664,83.374 93.901,76.981 94.256,76.934 		"/>
		<polygon fill="#08354A" points="94.461,83.324 94.106,83.384 93.054,77.191 93.407,77.131 		"/>
		<path fill="#08354A" d="M93.721,83.5l-0.357,0.067c-0.444-2.383-1.141-6.008-1.225-6.239l0.316-0.16
			C92.56,77.349,93.377,81.657,93.721,83.5L93.721,83.5z"/>
		<polygon fill="#08354A" points="93.03,83.66 92.683,83.741 91.242,77.576 91.591,77.493 		"/>
		<polygon fill="#08354A" points="91.857,83.808 90.347,77.795 90.693,77.71 92.205,83.721 		"/>
		<polygon fill="#08354A" points="91.202,84.108 89.515,78.07 89.857,77.977 91.546,84.013 		"/>
		<polygon fill="#08354A" points="90.626,84.254 88.656,78.222 88.994,78.109 90.963,84.145 		"/>
		<polygon fill="#08354A" points="89.938,84.429 87.78,78.3 88.117,78.179 90.272,84.309 		"/>
		<polygon fill="#08354A" points="89.371,84.636 87.055,78.548 87.391,78.42 89.709,84.51 		"/>
		<polygon fill="#08354A" points="88.725,84.731 86.179,78.63 86.511,78.494 89.055,84.598 		"/>
		<path fill="#08354A" d="M50.779,93.571c-7.073,1.717-15.722,2.901-15.811,2.914l-0.31,0.039l-1.8-9.403l0.121-0.123
			c4.792-4.794,3.151-13.654,3.134-13.741l-0.056-0.304l19.648-4.926l0.082,0.317c1.934,7.381,9.264,9.935,9.337,9.961l0.158,0.052
			l3.243,10.118l-0.314,0.098c-0.093,0.032-9.194,2.848-15.923,4.614C51.8,93.32,51.292,93.448,50.779,93.571L50.779,93.571z
			 M35.19,95.787c1.735-0.246,10.39-1.51,16.934-3.234c6-1.579,13.905-3.994,15.568-4.507l-2.937-9.177
			c-1.101-0.423-7.545-3.166-9.521-10.043l-18.419,4.611c0.262,1.652,1.188,9.312-3.247,13.905L35.19,95.787L35.19,95.787z"/>
		<path fill="#08354A" d="M22.932,22.87c-0.069-0.054-6.976-5.167-8.886-13.764c-1.39-6.262-0.55-19.004,12.61-22.386l0.168-0.045
			c5.053-1.227,10.265,0.828,14.295,5.635c4.776,5.708,7.744,15.689,3.592,25.125l-0.685-0.144
			c0.001-0.163-0.016-16.359-7.149-22.001c-2.323-1.84-5.188-2.369-8.525-1.567c-4.553,1.104-7.595,3.457-9.08,6.993
			c-2.268,5.411-0.706,13.517,4.174,21.68L22.932,22.87L22.932,22.87z M28.155-6.962c3.59-0.864,6.664-0.291,9.169,1.689
			c6.048,4.788,7.166,16.35,7.372,20.802c3.041-8.66,0.237-17.544-4.13-22.757c-3.844-4.591-8.793-6.559-13.574-5.399l-0.162,0.039
			C14.2-9.34,13.399,2.923,14.741,8.953c1.294,5.818,4.957,9.999,7.063,12.001c-4.178-7.739-5.378-15.295-3.194-20.511
			C20.19-3.318,23.4-5.809,28.155-6.962L28.155-6.962z"/>
		<path fill="#08354A" d="M55.83,98.836c-15.07,3.656-26.237,5.266-26.352,5.28l-0.394,0.053l-1.33-3.947l0.544-0.099
			c0.086-0.019,8.756-1.565,19.373-4.137c1.219-0.298,2.466-0.607,3.726-0.928c12.271-3.134,23.867-6.322,23.979-6.354l0.513-0.14
			l0.744,4.479l-0.396,0.124C69.783,95.21,62.918,97.116,55.83,98.836L55.83,98.836z M29.738,103.111
			c2.101-0.316,12.424-1.94,25.868-5.203c6.923-1.68,13.631-3.536,19.951-5.524l-0.435-2.623c-2.378,0.652-12.67,3.459-23.487,6.218
			c-10.723,2.736-20.282,4.552-22.622,4.981L29.738,103.111L29.738,103.111z"/>
		<g>
			<path fill="#08354A" d="M22.741,21.604c-0.021-0.008-0.029-0.013-0.034-0.014c-0.216-0.069-0.451,0.046-0.526,0.26l-0.335,0.917
				l-1.649,1.958c0.028-0.036-6.133,4.214-9.755,6.187c-0.064,0.038-0.12,0.091-0.157,0.152C9.832,31.788-0.763,48.828-1.376,50.949
				c-0.049,0.18,0.021,0.373,0.175,0.477c0.042,0.026,0.167,0.105,0.359,0.232l0.411-0.749c0.867-2.188,7.695-13.38,11.38-19.308
				c3.673-2.015,9.757-6.214,9.817-6.256l1.804-2.165c0,0,0.142-0.362,0.26-0.669c0.09,0.028,0.197,0.061,0.32,0.103
				C22.973,22.257,22.837,21.903,22.741,21.604z"/>
			<path fill="#08354A" d="M17.037,55.761c-0.132-0.02-0.266,0.021-0.363,0.112c0,0-2.513,2.333-3.249,3.023
				c-0.167,0.306-0.503,0.761-0.614,0.902c0.126,0.061,0.25,0.112,0.36,0.159c0.154,0.061,0.33,0.028,0.45-0.083
				c0,0,2.457-2.291,3.169-2.951c0.17-0.232,0.381-0.524,0.597-0.844c-0.03-0.051-0.047-0.091-0.047-0.096
				C17.28,55.866,17.167,55.784,17.037,55.761z"/>
			<path fill="#08354A" d="M65.151,44.114c-0.13-0.036-0.266-0.011-0.372,0.067c-0.104,0.083-0.171,0.205-0.167,0.339
				c-0.004,0.009,0,0.127,0.002,0.335c0.253,0.101,0.226,0.044,0.526,0.169c0-0.04,0.326,0.094,0.326,0.057
				c0.855,0.241,4.232,1.191,4.232,1.191c0.157,0.043,0.326-0.008,0.437-0.135c0.084-0.096,0.169-0.207,0.261-0.319l-0.748-0.441
				C69.153,45.237,65.151,44.114,65.151,44.114z"/>
			<path fill="#08354A" d="M78.943,31.471c-1.524-1.604-18.745-11.896-19.477-12.334c-0.066-0.036-0.139-0.059-0.213-0.063
				c-4.125-0.095-11.543-1.05-11.618-1.061l-2.369-1.036l-0.596-0.582c-0.17-0.153-0.431-0.148-0.593,0.013
				c-0.001,0.001-0.039,0.05-0.105,0.133c0.069,0.372,0.099,0.726,0.108,1.059c0.118-0.118,0.219-0.227,0.306-0.307
				c0.202,0.19,0.419,0.389,0.419,0.389l2.611,1.143c0.186,0.043,7.515,0.99,11.701,1.097c5.991,3.582,17.185,10.401,18.966,11.949
				c-0.004,0.004-0.009,0.015-0.011,0.02l0.746,0.408c0.095-0.173,0.158-0.285,0.183-0.324C79.094,31.81,79.07,31.606,78.943,31.471
				z"/>
		</g>
		<path fill="#08354A" d="M36.101,27.817c-7.866,1.906-13.582-4.932-13.64-5l0.737-0.605c0.055,0.062,5.402,6.444,12.678,4.679
			c0.029-0.007,0.06-0.015,0.09-0.021c7.204-1.811,8.006-9.054,8.034-9.357l0.95,0.088c-0.007,0.082-0.883,8.217-8.755,10.192
			C36.167,27.802,36.131,27.81,36.101,27.817L36.101,27.817z"/>
	</g>
	<path fill="none" stroke="#08354A" stroke-width="0.5" d="M39.937,28.388c0,0-0.7,2.302-0.298,3.303c0.4,1,1.6,2.399,1.501,3.601"
		/>
	<path fill="none" stroke="#08354A" stroke-width="0.5" d="M34.136,30.291c0,0-0.8,1.4-0.4,2.501c0.4,1.1,2.101,3.102,1.7,4.102
		c-0.4,1-0.701,2-0.701,2"/>
</g>
</svg>
