<?xml version="1.0" encoding="utf-8"?>
<!-- Generator: Adobe Illustrator 14.0.0, SVG Export Plug-In . SVG Version: 6.00 Build 43363)  -->
<!DOCTYPE svg PUBLIC "-//W3C//DTD SVG 1.1//EN" "http://www.w3.org/Graphics/SVG/1.1/DTD/svg11.dtd">
<svg version="1.1" id="Calque_1" xmlns="http://www.w3.org/2000/svg" xmlns:xlink="http://www.w3.org/1999/xlink" x="0px" y="0px"
	 width="120px" height="120px" viewBox="-15 -15 120 120" enable-background="new -15 -15 120 120" xml:space="preserve">
<g>
	<path fill="#CCE6E3" d="M65.792,96.153l-33.552,8.476l-8.474-31.132l-9.253-30.526l-5.102,5.015c0,0-6.83-3.285-10.808-5.62
		c-3.979-2.335-9.514-5.707-9.514-5.707l6.485-12.713L4.222,8.641l4.497-2.682l8.819-6.139l2.94-3.546l0.346-1.037
		c0,0,6.919,1.901,11.847,1.037c4.928-0.864,7.955-1.903,7.955-1.903s8.044-4.583,9.945-7.178l1.132,0.764l3.713,1.14l16.256,1.038
		l3.547,1.815c0,0,22.311,12.625,23.955,14.354L93.49,16.58l-5.973,9.829c0,0-6.561-1.407-7.076-2.134l7.822,29.381l9.082,32.969
		L65.792,96.153z"/>
	<path fill="#AECCC7" d="M20.825-4.763c0,0,7.139,1.884,11.069,1.384c3.93-0.5,5.702-1.31,5.702-1.31l3.506-1.08
		c0,0,8.167-4.853,9.86-7.241l0.233,1.695c0,0,0.347,12.096-10.827,15.177C40.368,3.862,27.244,9.339,20.825-4.763z"/>
	<g>
		<path fill="#08354A" d="M73.477-8.212c-0.065,23.799,6.581,32.926,6.861,33.305c0.194,0.259,0.568,0.315,0.831,0.119
			c0.257-0.198,0.314-0.568,0.12-0.828c-0.066-0.093-6.687-9.254-6.626-32.594c0.003-0.327-0.263-0.593-0.592-0.594
			C73.741-8.807,73.477-8.542,73.477-8.212z"/>
		<path fill="#08354A" d="M53.033-11.057c0.015,0.129,1.31,13.101-12.893,18.161c-0.154,0.056-0.234,0.225-0.18,0.379
			c0.055,0.153,0.229,0.235,0.378,0.18c14.653-5.219,13.303-18.651,13.285-18.786c-0.021-0.162-0.161-0.279-0.327-0.26
			C53.132-11.368,53.015-11.221,53.033-11.057z"/>
		<path fill="#08354A" d="M50.517-12.038C50.592,1.696,39.714,3.457,39.254,3.523c-0.325,0.048-0.547,0.35-0.5,0.672
			C38.8,4.521,39.1,4.744,39.425,4.697c0.122-0.018,12.361-1.95,12.28-16.74c-0.003-0.331-0.269-0.595-0.599-0.589
			C50.779-12.632,50.514-12.368,50.517-12.038z"/>
		<path fill="#08354A" d="M2.898,10.837c-0.28,0.17-0.371,0.534-0.203,0.814C14.713,31.658,13.732,42.919,13.725,43.03
			c-0.035,0.322,0.201,0.615,0.525,0.647c0.324,0.033,0.619-0.2,0.651-0.527c0.048-0.47,1.069-11.711-11.189-32.108
			C3.543,10.759,3.179,10.668,2.898,10.837z"/>
		<path fill="#08354A" d="M19.41-2.038c-0.148,0.071-0.214,0.248-0.152,0.393c0.058,0.126,5.783,12.351,21.041,9.317
			c0.161-0.028,0.263-0.188,0.232-0.345c-0.032-0.163-0.186-0.265-0.349-0.233c-14.783,2.938-20.323-8.86-20.381-8.981
			C19.736-2.039,19.56-2.102,19.41-2.038z"/>
		<path fill="#08354A" d="M20.646-4.229c-0.278,0.167-0.376,0.53-0.208,0.814c7.519,12.737,19.011,8.121,19.128,8.074
			c0.3-0.127,0.442-0.472,0.319-0.775c-0.13-0.3-0.472-0.444-0.775-0.322c-0.433,0.183-10.672,4.25-17.652-7.581
			C21.291-4.302,20.928-4.393,20.646-4.229z"/>
		<path fill="#08354A" d="M22.589-1.87c-0.166,0.284-0.064,0.647,0.222,0.806c5.264,2.991,13.836,0.29,14.198,0.172l1.79-0.493
			c0.347-0.079,9.089-2.154,12.075-7.424c0.166-0.284,0.066-0.648-0.224-0.804c-0.282-0.166-0.645-0.067-0.804,0.223
			c-2.733,4.809-11.252,6.841-11.341,6.857l-1.837,0.509c-0.106,0.034-8.464,2.662-13.27-0.068
			C23.109-2.258,22.748-2.157,22.589-1.87z"/>
		<path fill="#08354A" d="M99.631,5.938c-2.196-2.17-26.649-15.77-27.689-16.344c-0.089-0.049-0.194-0.078-0.295-0.074
			c-5.757,0.047-16.139-0.966-16.239-0.975l-3.358-1.341l-0.852-0.786c-0.239-0.209-0.602-0.194-0.821,0.04
			c-0.07,0.074-6.89,7.257-12.989,8.195c-0.024,0.001-0.047,0.004-0.067,0.011l-1.093,0.301c-5.785,2.351-15.32-0.32-15.422-0.347
			c-0.303-0.088-0.621,0.083-0.723,0.387l-0.424,1.293l-2.213,2.8C17.478-0.954,9.08,5.241,4.113,8.151
			c-0.087,0.052-0.16,0.127-0.209,0.215c-0.6,1.029-14.626,25.247-15.384,28.232c-0.064,0.256,0.043,0.52,0.264,0.657
			c0.635,0.38,15.608,9.463,20.406,11.263c0.219,0.08,0.463,0.028,0.625-0.138c0,0,3.324-3.297,4.287-4.251
			c0.226-0.329,0.515-0.747,0.8-1.198c-0.041-0.074-0.072-0.124-0.076-0.13c-0.086-0.164-0.247-0.275-0.429-0.303
			c-0.19-0.024-0.372,0.04-0.504,0.171c0,0-4.116,4.077-4.626,4.586C4.648,45.403-8.104,37.743-10.167,36.5
			C-9.051,33.41-0.023,17.509,4.852,9.09C9.891,6.122,18.183,0,18.27-0.062l2.419-3.092c0,0,0.178-0.512,0.333-0.942
			c2.15,0.546,10.224,2.362,15.59,0.183l1.008-0.273c5.694-0.906,11.655-6.554,13.22-8.134c0.292,0.257,0.603,0.526,0.603,0.526
			l3.689,1.476c0.262,0.048,10.516,1.05,16.36,1.017C79.994-4.575,95.901,4.446,98.449,6.526
			c-1.133,2.128-8.163,15.243-11.17,19.203c-0.692-0.175-6.322-1.566-6.322-1.566c-0.18-0.047-0.37-0.005-0.518,0.113
			c-0.146,0.112-0.226,0.294-0.216,0.479c-0.002,0.012,0,0.173,0.015,0.462c0.359,0.134,0.32,0.056,0.746,0.218
			c-0.003-0.056,0.454,0.116,0.454,0.069c1.2,0.294,5.951,1.47,5.951,1.47c0.228,0.056,0.46-0.023,0.609-0.202
			c3.189-4.007,11.39-19.483,11.738-20.136C99.858,6.408,99.816,6.123,99.631,5.938z"/>
		<path fill="#08354A" d="M64.069,97.246c-14.017,3.866-31.582,7.835-31.756,7.871l-0.615,0.142l-0.151-0.612
			c-8.062-31.833-17.668-61.654-17.763-61.949l1.225-0.397c0.093,0.295,9.586,29.776,17.631,61.428
			c3.222-0.735,18.574-4.271,31.089-7.723c12.607-3.481,29.493-8.85,32.844-9.923c-1.47-5.195-12.061-42.791-16.58-61.486l1.248-0.3
			c4.829,19.982,16.617,61.613,16.735,62.031l0.168,0.6l-0.593,0.188C97.361,87.182,78.086,93.376,64.069,97.246L64.069,97.246z"/>
		<polygon fill="#08354A" points="11.197,46.396 -9.522,33.871 -8.857,32.776 11.861,45.299 		"/>
		<polygon fill="#08354A" points="85.376,25.939 84.257,25.31 96.065,4.203 97.184,4.829 		"/>
	</g>
</g>
</svg>
