<?xml version="1.0" encoding="utf-8"?>
<!-- Generator: Adobe Illustrator 14.0.0, SVG Export Plug-In . SVG Version: 6.00 Build 43363)  -->
<!DOCTYPE svg PUBLIC "-//W3C//DTD SVG 1.1//EN" "http://www.w3.org/Graphics/SVG/1.1/DTD/svg11.dtd">
<svg version="1.1" id="Calque_1" xmlns="http://www.w3.org/2000/svg" xmlns:xlink="http://www.w3.org/1999/xlink" x="0px" y="0px"
	 width="120px" height="120px" viewBox="-15 -15 120 120" enable-background="new -15 -15 120 120" xml:space="preserve">
<g>
	<path fill="#CBE6E3" d="M85.213,58.174l-3.197-28.859l-15.546,3.62c0.105-10.01-2.452-22.577-3.304-27.899
		c-0.851-5.324-3.194-11.395-3.194-11.395c-10.437-12.033-32.799-5.643-32.799-5.643C9.282-5.506,6.833,3.758,5.875,6.738
		c-0.958,2.982,0.746,7.775,0.746,7.775c1.064,5.218,5.856,16.932,5.856,16.932l5.286,12.545L1.479,48.582l21.818,56.066
		L88.62,88.842L85.213,58.174z M23.146,43.264c0,0-10.343-23.455-12.793-35.154c0,0,1.703-12.232,20.658-17.024
		c18.957-4.792,24.999,5.8,24.999,5.8s4.818,16.562,4.925,28.276l0.215,8.945L23.146,43.264z"/>
	<g>
		<polygon fill="#08354A" points="62.139,34.64 22.904,44.16 22.581,42.823 61.813,33.304 62.139,34.64 		"/>
		<polygon fill="#08354A" points="22.992,105.5 0.515,48.276 17.763,43.991 18.097,45.327 2.372,49.234 23.831,103.873 
			87.806,88.067 81.398,29.941 66.681,33.539 66.356,32.202 82.595,28.232 89.306,89.116 22.992,105.5 		"/>
		<path fill="#08354A" d="M66.712,41.668l-5.269,1.277l0.013-0.598c0.004-0.309,0.645-30.946-5.447-45.461
			c-0.282-0.481-6.24-10.154-23.705-5.917c-0.588,0.142-1.189,0.301-1.791,0.472C11.897-3.271,10.437,7.27,10.352,8.11
			c0.239,1.165,3.805,18.177,12.793,35.154l3.969,7.66l-5.517,1.534l-4.112-7.751C16.988,43.626,5.62,18.655,5.36,9.067
			C5.091-0.917,17.569-10.16,29.279-13.001c0.155-0.037,0.309-0.074,0.461-0.108c6.289-1.441,13.503-1.464,19.298-0.062
			c6.763,1.638,11.191,5.084,12.467,9.711c2.897,10.51,5.182,25.715,5.432,36.152L66.712,41.668L66.712,41.668z M62.383,41.771
			l3.429-0.833l0.204-8.246C65.771,22.344,63.498,7.231,60.62-3.214c-2.712-9.835-19.555-11.547-30.674-9.001
			c-0.152,0.033-0.299,0.068-0.45,0.105C18.131-9.353,6.022-0.482,6.28,9.041c0.251,9.401,11.911,35.001,12.027,35.26l3.753,7.079
			l3.719-1.04l-3.449-6.648C13.002,26.067,9.477,8.397,9.439,8.223L9.431,8.11C9.459,7.626,10.342-3.784,30.262-9.442
			c0.612-0.173,1.226-0.337,1.826-0.481c18.53-4.495,24.675,6.274,24.733,6.385l0.022,0.042
			C62.548,10.055,62.44,37.387,62.383,41.771L62.383,41.771z"/>
		<path fill="#08354A" d="M24.406,42.901c0,0-12.234-23.878-12.555-35.308c0,0,2.292-12.06,19.78-15.842
			c17.491-3.786,23.139,5.585,23.139,5.585s4.361,12.898,5.711,36.81l1.486-0.206c0,0-0.679-27.799-5.544-37.257
			c0,0-5.73-11.094-24.639-6.198c0,0-19.095,4.303-21.895,17.647c0,0,4.304,20.874,12.848,35.346L24.406,42.901z"/>
		<path fill="#08354A" d="M23.83,49.071c0.101,0.416-0.148,0.833-0.553,0.929c-0.405,0.101-0.814-0.156-0.914-0.572
			c-0.101-0.412,0.146-0.827,0.549-0.926C23.319,48.404,23.73,48.662,23.83,49.071z"/>
		<path fill="#08354A" d="M22.128,46.015c0.102,0.414-0.144,0.829-0.55,0.927c-0.41,0.1-0.818-0.158-0.917-0.573
			c-0.1-0.409,0.146-0.825,0.555-0.926C21.62,45.345,22.028,45.603,22.128,46.015z"/>
		<path fill="#08354A" d="M64.776,39.327c0.1,0.415-0.148,0.826-0.551,0.926c-0.407,0.098-0.816-0.155-0.916-0.571
			c-0.101-0.412,0.146-0.828,0.555-0.925C64.266,38.656,64.676,38.915,64.776,39.327z"/>
		<path fill="#08354A" d="M64.908,35.73c0.102,0.417-0.147,0.831-0.551,0.927c-0.402,0.098-0.814-0.157-0.912-0.571
			c-0.103-0.411,0.146-0.828,0.549-0.926C64.397,35.064,64.809,35.318,64.908,35.73z"/>
		<polygon fill="#08354A" points="66.528,35.46 66.421,35.013 82.102,31.185 82.209,31.631 66.528,35.46 		"/>
		<polygon fill="#08354A" points="62.068,36.543 23.697,45.854 23.588,45.406 61.959,36.096 62.068,36.543 		"/>
		<polygon fill="#08354A" points="2.239,51.156 2.128,50.71 18.681,46.598 18.791,47.042 2.239,51.156 		"/>
		<polygon fill="#08354A" points="23.491,103.38 23.383,102.935 88.132,87.089 88.24,87.535 23.491,103.38 		"/>
	</g>
</g>
</svg>
